# xmcd CD database file
#
# Track frame offsets:
#	150
#	14195
#	31695
#	45849
#	73487
#	90193
#	105774
#	130242
#	147103
#	164976
#	179034
#	198756
#	214043
#	230791
#	250613
#
# Disc length: 3738 seconds
#
# Revision: 3
# Processed by: cddbd v1.5.2PL0 Copyright (c) Steve Scherf et al.
# Submitted via: CDex 1.70beta2
#
DISCID=ce0e980f
DTITLE=Rózni wykonawcy - Trojka Live. Wasowski na jazzowo. Koncert w Trojce 12.05.1998
DYEAR=2007
DGENRE=Jazz
TTITLE0=Marcin Kydrynski - Zapowiedz
TTITLE1=Zespol Five Lines - Piosenka ulicy
TTITLE2=Ewa Cybulska - Historia prosta
TTITLE3=Mieczysław Szczesniak - Zmierzch
TTITLE4=Iza Zajac - Puk puk puk
TTITLE5=Marek Balata - Ostatni raz
TTITLE6=Anna Serafinska - Nie odchodz
TTITLE7=Hanna Banaszak - Panienka z temperamentem
TTITLE8=Ewa Cybulska - Kaziu, zakochaj się
TTITLE9=Mieczysław Szczesniak - No i jak tu nie jechac
TTITLE10=Iza Zajac - Nie, nie, nie budzcie mnie
TTITLE11=Marek Balata - Szcześcia nie szukaj daleko
TTITLE12=Anna Serafinska - Badz mi tata
TTITLE13=Hanna Banaszak - Dla ciebie jestem soba
TTITLE14=Hanna Banaszak - Dobranoc, juz czas na sen
EXTD=YEAR: 2007
EXTT0=
EXTT1=
EXTT2=
EXTT3=
EXTT4=
EXTT5=
EXTT6=
EXTT7=
EXTT8=
EXTT9=
EXTT10=
EXTT11=
EXTT12=
EXTT13=
EXTT14=
PLAYORDER=
